<svg width="16" height="16" viewBox="0 0 16 16" fill="none" xmlns="http://www.w3.org/2000/svg">
<path d="M2.6665 4C2.6665 3.4477 3.11422 3 3.6665 3H12.3332C12.8855 3 13.3332 3.4477 13.3332 4V7.66667H2.6665V4Z" stroke="#C5D0E6" stroke-linecap="round" stroke-linejoin="round"/>
<path d="M2 11.6665V12.9998" stroke="#C5D0E6" stroke-linecap="round" stroke-linejoin="round"/>
<path d="M13.9995 11.6665V12.9998" stroke="#C5D0E6" stroke-linecap="round" stroke-linejoin="round"/>
<path d="M7.6665 7.66667V7C7.6665 6.4477 7.2188 6 6.6665 6H4.6665C4.1142 6 3.6665 6.4477 3.6665 7V7.66667" stroke="#C5D0E6" stroke-linecap="round" stroke-linejoin="round"/>
<path d="M12.333 7.66667V7C12.333 6.4477 11.8853 6 11.333 6H9.33301C8.78071 6 8.33301 6.4477 8.33301 7V7.66667" stroke="#C5D0E6" stroke-linecap="round" stroke-linejoin="round"/>
<path d="M1.33301 8.66699C1.33301 8.11469 1.78072 7.66699 2.33301 7.66699H13.6663C14.2186 7.66699 14.6663 8.11469 14.6663 8.66699V11.667H1.33301V8.66699Z" stroke="#C5D0E6" stroke-linecap="round" stroke-linejoin="round"/>
</svg>
