<svg width="16" height="16" viewBox="0 0 16 16" fill="none" xmlns="http://www.w3.org/2000/svg">
<path d="M11.3332 3.30683V8.0535C11.3332 9.38016 10.3932 9.8935 9.23984 9.20016L8.35984 8.66683C8.15984 8.54683 7.83984 8.54683 7.63984 8.66683L6.75984 9.20016C5.6065 9.8935 4.6665 9.38016 4.6665 8.0535V3.32683C4.67317 2.00016 5.33984 1.3335 6.6665 1.3335H9.33317C10.6532 1.3335 11.3198 1.9935 11.3332 3.30683Z" fill="white"/>
<path d="M14.6668 7.93356V9.95356C14.6668 13.3202 13.3335 14.6669 10.0002 14.6669H6.00016C2.66683 14.6669 1.3335 13.3202 1.3335 9.95356V7.93356C1.3335 6.14023 1.7135 4.92023 2.56683 4.17356C3.00016 3.8069 3.66683 4.1269 3.66683 4.69356V8.05356C3.66683 9.0469 4.0735 9.8469 4.78016 10.2469C5.4935 10.6536 6.40016 10.5802 7.28016 10.0536L8.00016 9.62023L8.72683 10.0536C9.22016 10.3536 9.7335 10.5069 10.2135 10.5069C10.5735 10.5069 10.9135 10.4202 11.2202 10.2469C11.9268 9.8469 12.3335 9.0469 12.3335 8.05356V4.6869C12.3335 4.12023 13.0068 3.80023 13.4335 4.17356C14.2868 4.92023 14.6668 6.14023 14.6668 7.93356Z" fill="white"/>
</svg>
