<svg width="16" height="16" viewBox="0 0 16 16" fill="none" xmlns="http://www.w3.org/2000/svg">
<path d="M3.3335 5.33325C2.22683 5.33325 1.3335 6.22659 1.3335 7.33325V12.6666C1.3335 13.7733 2.22683 14.6666 3.3335 14.6666H4.3335C5.06683 14.6666 5.66683 14.0666 5.66683 13.3333V6.66659C5.66683 5.93325 5.06683 5.33325 4.3335 5.33325H3.3335ZM4.00016 11.3333C4.00016 11.6066 3.7735 11.8333 3.50016 11.8333C3.22683 11.8333 3.00016 11.6066 3.00016 11.3333V8.66659C3.00016 8.39325 3.22683 8.16659 3.50016 8.16659C3.7735 8.16659 4.00016 8.39325 4.00016 8.66659V11.3333Z" fill="#192252"/>
<path d="M12.6665 1.33325H8.6665C7.55984 1.33325 6.6665 2.22659 6.6665 3.33325V12.6666C6.6665 13.7733 7.55984 14.6666 8.6665 14.6666H8.99984C9.1865 14.6666 9.33317 14.5199 9.33317 14.3333V11.9999C9.33317 11.6333 9.63317 11.3333 9.99984 11.3333H11.3332C11.6998 11.3333 11.9998 11.6333 11.9998 11.9999V14.3333C11.9998 14.5199 12.1465 14.6666 12.3332 14.6666H12.6665C13.7732 14.6666 14.6665 13.7733 14.6665 12.6666V3.33325C14.6665 2.22659 13.7732 1.33325 12.6665 1.33325ZM9.83317 8.66659C9.83317 8.93992 9.6065 9.16659 9.33317 9.16659C9.05984 9.16659 8.83317 8.93992 8.83317 8.66659V5.33325C8.83317 5.05992 9.05984 4.83325 9.33317 4.83325C9.6065 4.83325 9.83317 5.05992 9.83317 5.33325V8.66659ZM12.4998 8.66659C12.4998 8.93992 12.2732 9.16659 11.9998 9.16659C11.7265 9.16659 11.4998 8.93992 11.4998 8.66659V5.33325C11.4998 5.05992 11.7265 4.83325 11.9998 4.83325C12.2732 4.83325 12.4998 5.05992 12.4998 5.33325V8.66659Z" fill="#192252"/>
</svg>
