<svg width="16" height="16" viewBox="0 0 16 16" fill="none" xmlns="http://www.w3.org/2000/svg">
<path d="M14.6136 7.7465C14.5819 7.66467 14.5343 7.58991 14.4736 7.5265L12.8069 5.85984C12.6814 5.7343 12.5111 5.66378 12.3336 5.66378C12.1561 5.66378 11.9858 5.7343 11.8603 5.85984C11.7347 5.98537 11.6642 6.15564 11.6642 6.33317C11.6642 6.5107 11.7347 6.68097 11.8603 6.8065L12.3936 7.33317H8.66692V5.33317C8.66692 5.15636 8.59668 4.98679 8.47166 4.86177C8.34664 4.73674 8.17707 4.6665 8.00026 4.6665C7.82344 4.6665 7.65388 4.73674 7.52885 4.86177C7.40383 4.98679 7.33359 5.15636 7.33359 5.33317V7.33317H3.60692L4.14026 6.8065C4.26579 6.68097 4.33632 6.5107 4.33632 6.33317C4.33632 6.15564 4.26579 5.98537 4.14026 5.85984C4.01472 5.7343 3.84446 5.66378 3.66692 5.66378C3.48939 5.66378 3.31913 5.7343 3.19359 5.85984L1.52692 7.5265C1.46623 7.58991 1.41865 7.66467 1.38692 7.7465C1.32024 7.90881 1.32024 8.09086 1.38692 8.25317C1.41865 8.335 1.46623 8.40977 1.52692 8.47317L3.19359 10.1398C3.25556 10.2023 3.3293 10.2519 3.41054 10.2858C3.49178 10.3196 3.57891 10.337 3.66692 10.337C3.75493 10.337 3.84207 10.3196 3.92331 10.2858C4.00455 10.2519 4.07828 10.2023 4.14026 10.1398C4.20274 10.0779 4.25234 10.0041 4.28618 9.92289C4.32003 9.84165 4.33746 9.75451 4.33746 9.6665C4.33746 9.5785 4.32003 9.49136 4.28618 9.41012C4.25234 9.32888 4.20274 9.25515 4.14026 9.19317L3.60692 8.6665H7.33359V10.6665C7.33359 10.8433 7.40383 11.0129 7.52885 11.1379C7.65388 11.2629 7.82344 11.3332 8.00026 11.3332C8.17707 11.3332 8.34664 11.2629 8.47166 11.1379C8.59668 11.0129 8.66692 10.8433 8.66692 10.6665V8.6665H12.3936L11.8603 9.19317C11.7978 9.25515 11.7482 9.32888 11.7143 9.41012C11.6805 9.49136 11.6631 9.5785 11.6631 9.6665C11.6631 9.75451 11.6805 9.84165 11.7143 9.92289C11.7482 10.0041 11.7978 10.0779 11.8603 10.1398C11.9222 10.2023 11.996 10.2519 12.0772 10.2858C12.1584 10.3196 12.2456 10.337 12.3336 10.337C12.4216 10.337 12.5087 10.3196 12.59 10.2858C12.6712 10.2519 12.7449 10.2023 12.8069 10.1398L14.4736 8.47317C14.5343 8.40977 14.5819 8.335 14.6136 8.25317C14.6803 8.09086 14.6803 7.90881 14.6136 7.7465Z" fill="#C5D0E6"/>
<path d="M10.6665 7.33359H8.6665V3.60692L9.19317 4.14026C9.25515 4.20274 9.32888 4.25234 9.41012 4.28618C9.49136 4.32003 9.5785 4.33746 9.6665 4.33746C9.75451 4.33746 9.84165 4.32003 9.92289 4.28618C10.0041 4.25234 10.0779 4.20274 10.1398 4.14026C10.2023 4.07828 10.2519 4.00455 10.2858 3.92331C10.3196 3.84207 10.337 3.75493 10.337 3.66692C10.337 3.57892 10.3196 3.49178 10.2858 3.41054C10.2519 3.3293 10.2023 3.25557 10.1398 3.19359L8.47317 1.52692C8.40977 1.46623 8.335 1.41865 8.25317 1.38692C8.09086 1.32024 7.90881 1.32024 7.7465 1.38692C7.66467 1.41865 7.58991 1.46623 7.5265 1.52692L5.85984 3.19359C5.7343 3.31913 5.66378 3.48939 5.66378 3.66692C5.66378 3.84446 5.7343 4.01472 5.85984 4.14026C5.98537 4.26579 6.15564 4.33632 6.33317 4.33632C6.5107 4.33632 6.68097 4.26579 6.8065 4.14026L7.33317 3.60692V7.33359H5.33317C5.15636 7.33359 4.98679 7.40383 4.86177 7.52885C4.73674 7.65388 4.6665 7.82345 4.6665 8.00026C4.6665 8.17707 4.73674 8.34664 4.86177 8.47166C4.98679 8.59668 5.15636 8.66692 5.33317 8.66692H7.33317V12.3936L6.8065 11.8603C6.74434 11.7981 6.67055 11.7488 6.58934 11.7151C6.50812 11.6815 6.42108 11.6642 6.33317 11.6642C6.24526 11.6642 6.15822 11.6815 6.077 11.7151C5.99579 11.7488 5.922 11.7981 5.85984 11.8603C5.79768 11.9224 5.74837 11.9962 5.71473 12.0774C5.68109 12.1586 5.66378 12.2457 5.66378 12.3336C5.66378 12.4215 5.68109 12.5085 5.71473 12.5898C5.74837 12.671 5.79768 12.7448 5.85984 12.8069L7.5265 14.4736C7.58991 14.5343 7.66467 14.5819 7.7465 14.6136C7.8263 14.6489 7.91259 14.6671 7.99984 14.6671C8.08708 14.6671 8.17337 14.6489 8.25317 14.6136C8.335 14.5819 8.40977 14.5343 8.47317 14.4736L10.1398 12.8069C10.2654 12.6814 10.3359 12.5111 10.3359 12.3336C10.3359 12.1561 10.2654 11.9858 10.1398 11.8603C10.0143 11.7347 9.84404 11.6642 9.6665 11.6642C9.48897 11.6642 9.31871 11.7347 9.19317 11.8603L8.6665 12.3936V8.66692H10.6665C10.8433 8.66692 11.0129 8.59668 11.1379 8.47166C11.2629 8.34664 11.3332 8.17707 11.3332 8.00026C11.3332 7.82345 11.2629 7.65388 11.1379 7.52885C11.0129 7.40383 10.8433 7.33359 10.6665 7.33359Z" fill="#C5D0E6"/>
</svg>
