<svg width="17" height="16" viewBox="0 0 17 16" fill="none" xmlns="http://www.w3.org/2000/svg">
<path d="M7.86683 9.96683L6.6335 11.2002C6.3735 11.4602 5.96016 11.4602 5.6935 11.2068C5.62016 11.1335 5.54683 11.0668 5.4735 10.9935C4.78683 10.3002 4.16683 9.5735 3.6135 8.8135C3.06683 8.0535 2.62683 7.2935 2.30683 6.54016C1.9935 5.78016 1.8335 5.0535 1.8335 4.36016C1.8335 3.90683 1.9135 3.4735 2.0735 3.0735C2.2335 2.66683 2.48683 2.2935 2.84016 1.96016C3.26683 1.54016 3.7335 1.3335 4.22683 1.3335C4.4135 1.3335 4.60016 1.3735 4.76683 1.4535C4.94016 1.5335 5.0935 1.6535 5.2135 1.82683L6.76016 4.00683C6.88016 4.1735 6.96683 4.32683 7.02683 4.4735C7.08683 4.6135 7.12016 4.7535 7.12016 4.88016C7.12016 5.04016 7.0735 5.20016 6.98016 5.3535C6.8935 5.50683 6.76683 5.66683 6.60683 5.82683L6.10016 6.3535C6.02683 6.42683 5.9935 6.5135 5.9935 6.62016C5.9935 6.6735 6.00016 6.72016 6.0135 6.7735C6.0335 6.82683 6.0535 6.86683 6.06683 6.90683C6.18683 7.12683 6.3935 7.4135 6.68683 7.76016C6.98683 8.10683 7.30683 8.46016 7.6535 8.8135C7.72016 8.88016 7.7935 8.94683 7.86016 9.0135C8.12683 9.2735 8.1335 9.70016 7.86683 9.96683Z" fill="white"/>
<path d="M15.1466 12.2199C15.1466 12.4065 15.1132 12.5999 15.0466 12.7865C15.0266 12.8399 15.0066 12.8932 14.9799 12.9465C14.8666 13.1865 14.7199 13.4132 14.5266 13.6265C14.1999 13.9865 13.8399 14.2465 13.4332 14.4132C13.4266 14.4132 13.4199 14.4199 13.4132 14.4199C13.0199 14.5799 12.5932 14.6665 12.1332 14.6665C11.4532 14.6665 10.7266 14.5065 9.9599 14.1799C9.19324 13.8532 8.42657 13.4132 7.66657 12.8599C7.40657 12.6665 7.14657 12.4732 6.8999 12.2665L9.0799 10.0865C9.26657 10.2265 9.43324 10.3332 9.57324 10.4065C9.60657 10.4199 9.64657 10.4399 9.69324 10.4599C9.74657 10.4799 9.7999 10.4865 9.8599 10.4865C9.97324 10.4865 10.0599 10.4465 10.1332 10.3732L10.6399 9.8732C10.8066 9.70653 10.9666 9.57986 11.1199 9.49986C11.2732 9.40653 11.4266 9.35986 11.5932 9.35986C11.7199 9.35986 11.8532 9.38653 11.9999 9.44653C12.1466 9.50653 12.2999 9.5932 12.4666 9.70653L14.6732 11.2732C14.8466 11.3932 14.9666 11.5332 15.0399 11.6999C15.1066 11.8665 15.1466 12.0332 15.1466 12.2199Z" fill="white"/>
</svg>
