<svg width="24" height="24" viewBox="0 0 24 24" fill="none" xmlns="http://www.w3.org/2000/svg">
<g clip-path="url(#clip0_77_5228)">
<path d="M22.6754 24.0001C23.4068 24.0001 24 23.407 24 22.6755V1.32459C24 0.592969 23.4068 0 22.6754 0H1.32459C0.592875 0 0 0.592969 0 1.32459V22.6755C0 23.407 0.592875 24.0001 1.32459 24.0001H22.6754Z" fill="#395185"/>
<mask id="path-2-inside-1_77_5228" fill="white">
<path d="M16.5594 24V14.7059H19.6792L20.1462 11.0839H16.5594V8.77126C16.5594 7.72257 16.8507 7.00791 18.3546 7.00791L20.2726 7.00707V3.76754C19.9407 3.72338 18.8022 3.62476 17.4777 3.62476C14.7123 3.62476 12.8191 5.31272 12.8191 8.41266V11.0839H9.69141V14.7059H12.8191V24H16.5594Z"/>
</mask>
<path d="M16.5594 24V14.7059H19.6792L20.1462 11.0839H16.5594V8.77126C16.5594 7.72257 16.8507 7.00791 18.3546 7.00791L20.2726 7.00707V3.76754C19.9407 3.72338 18.8022 3.62476 17.4777 3.62476C14.7123 3.62476 12.8191 5.31272 12.8191 8.41266V11.0839H9.69141V14.7059H12.8191V24H16.5594Z" fill="white"/>
<path d="M16.5594 14.7059V13.7059H15.5594V14.7059H16.5594ZM19.6792 14.7059V15.7059H20.5585L20.6709 14.8338L19.6792 14.7059ZM20.1462 11.0839L21.138 11.2118L21.2834 10.0839H20.1462V11.0839ZM16.5594 11.0839H15.5594V12.0839H16.5594V11.0839ZM18.3546 7.00791V8.00791L18.355 8.00791L18.3546 7.00791ZM20.2726 7.00707L20.273 8.00707L21.2726 8.00663V7.00707H20.2726ZM20.2726 3.76754H21.2726V2.89178L20.4045 2.77627L20.2726 3.76754ZM12.8191 11.0839V12.0839H13.8191V11.0839H12.8191ZM9.69141 11.0839V10.0839H8.69141V11.0839H9.69141ZM9.69141 14.7059H8.69141V15.7059H9.69141V14.7059ZM12.8191 14.7059H13.8191V13.7059H12.8191V14.7059ZM12.8191 24H11.8191V25H12.8191V24ZM17.5594 24V14.7059H15.5594V24H17.5594ZM16.5594 15.7059H19.6792V13.7059H16.5594V15.7059ZM20.6709 14.8338L21.138 11.2118L19.1544 10.956L18.6874 14.578L20.6709 14.8338ZM20.1462 10.0839H16.5594V12.0839H20.1462V10.0839ZM17.5594 11.0839V8.77126H15.5594V11.0839H17.5594ZM17.5594 8.77126C17.5594 8.28974 17.6388 8.16324 17.658 8.1404C17.6593 8.13884 17.6789 8.11163 17.7693 8.08006C17.8706 8.04468 18.0518 8.00791 18.3546 8.00791V6.00791C17.4694 6.00791 16.6629 6.21702 16.1281 6.85225C15.6257 7.44891 15.5594 8.20408 15.5594 8.77126H17.5594ZM18.355 8.00791L20.273 8.00707L20.2722 6.00707L18.3541 6.00791L18.355 8.00791ZM21.2726 7.00707V3.76754H19.2726V7.00707H21.2726ZM20.4045 2.77627C20.0227 2.72548 18.8396 2.62476 17.4777 2.62476V4.62476C18.7648 4.62476 19.8587 4.72128 20.1407 4.7588L20.4045 2.77627ZM17.4777 2.62476C15.8921 2.62476 14.4534 3.11207 13.4084 4.14502C12.3603 5.18101 11.8191 6.65597 11.8191 8.41266H13.8191C13.8191 7.06942 14.2245 6.15042 14.8143 5.56745C15.4072 4.98142 16.2979 4.62476 17.4777 4.62476V2.62476ZM11.8191 8.41266V11.0839H13.8191V8.41266H11.8191ZM12.8191 10.0839H9.69141V12.0839H12.8191V10.0839ZM8.69141 11.0839V14.7059H10.6914V11.0839H8.69141ZM9.69141 15.7059H12.8191V13.7059H9.69141V15.7059ZM11.8191 14.7059V24H13.8191V14.7059H11.8191ZM12.8191 25H16.5594V23H12.8191V25Z" fill="white" mask="url(#path-2-inside-1_77_5228)"/>
</g>
<defs>
<clipPath id="clip0_77_5228">
<rect width="24" height="24" fill="white"/>
</clipPath>
</defs>
</svg>
