<svg width="16" height="16" viewBox="0 0 16 16" fill="none" xmlns="http://www.w3.org/2000/svg">
<path fill-rule="evenodd" clip-rule="evenodd" d="M2.3335 6.87818C2.3335 3.8116 4.89608 1.33301 7.99579 1.33301C11.1042 1.33301 13.6668 3.8116 13.6668 6.87818C13.6668 8.42347 13.1048 9.85809 12.1798 11.0741C11.1594 12.4154 9.9016 13.584 8.48586 14.5013C8.16184 14.7133 7.86941 14.7293 7.5138 14.5013C6.08999 13.584 4.83222 12.4154 3.8205 11.0741C2.89482 9.85809 2.3335 8.42347 2.3335 6.87818ZM6.12962 7.0513C6.12962 8.0786 6.9679 8.88658 7.99576 8.88658C9.02429 8.88658 9.87064 8.0786 9.87064 7.0513C9.87064 6.03199 9.02429 5.18468 7.99576 5.18468C6.9679 5.18468 6.12962 6.03199 6.12962 7.0513Z" fill="#192252"/>
</svg>
