<svg width="17" height="16" viewBox="0 0 17 16" fill="none" xmlns="http://www.w3.org/2000/svg">
<path d="M11.8335 1.3335H5.16683C3.32683 1.3335 1.8335 2.82016 1.8335 4.6535V8.64016V9.30683C1.8335 11.1402 3.32683 12.6268 5.16683 12.6268H6.16683C6.34683 12.6268 6.58683 12.7468 6.70016 12.8935L7.70016 14.2202C8.14016 14.8068 8.86016 14.8068 9.30016 14.2202L10.3002 12.8935C10.4268 12.7268 10.6268 12.6268 10.8335 12.6268H11.8335C13.6735 12.6268 15.1668 11.1402 15.1668 9.30683V4.6535C15.1668 2.82016 13.6735 1.3335 11.8335 1.3335ZM5.8335 8.00016C5.46016 8.00016 5.16683 7.70016 5.16683 7.3335C5.16683 6.96683 5.46683 6.66683 5.8335 6.66683C6.20016 6.66683 6.50016 6.96683 6.50016 7.3335C6.50016 7.70016 6.20683 8.00016 5.8335 8.00016ZM8.50016 8.00016C8.12683 8.00016 7.8335 7.70016 7.8335 7.3335C7.8335 6.96683 8.1335 6.66683 8.50016 6.66683C8.86683 6.66683 9.16683 6.96683 9.16683 7.3335C9.16683 7.70016 8.8735 8.00016 8.50016 8.00016ZM11.1668 8.00016C10.7935 8.00016 10.5002 7.70016 10.5002 7.3335C10.5002 6.96683 10.8002 6.66683 11.1668 6.66683C11.5335 6.66683 11.8335 6.96683 11.8335 7.3335C11.8335 7.70016 11.5402 8.00016 11.1668 8.00016Z" fill="white"/>
</svg>
