<svg width="16" height="16" viewBox="0 0 16 16" fill="none" xmlns="http://www.w3.org/2000/svg">
<path d="M4.99984 4.66667C5.73622 4.66667 6.33317 4.06971 6.33317 3.33333C6.33317 2.59695 5.73622 2 4.99984 2C4.26346 2 3.6665 2.59695 3.6665 3.33333C3.6665 4.06971 4.26346 4.66667 4.99984 4.66667Z" stroke="#C5D0E6" stroke-linecap="round" stroke-linejoin="round"/>
<path d="M11.0003 4.66667C11.7367 4.66667 12.3337 4.06971 12.3337 3.33333C12.3337 2.59695 11.7367 2 11.0003 2C10.2639 2 9.66699 2.59695 9.66699 3.33333C9.66699 4.06971 10.2639 4.66667 11.0003 4.66667Z" stroke="#C5D0E6" stroke-linecap="round" stroke-linejoin="round"/>
<path d="M3.3335 6.6665H6.66683L6.00016 13.9998H4.00016L3.3335 6.6665Z" stroke="#C5D0E6" stroke-linecap="round" stroke-linejoin="round"/>
<path d="M9.33366 6.6665H12.667L13.3337 10.3332H12.3337L12.0003 13.9998H10.0003L9.66699 10.3332H8.66699L9.33366 6.6665Z" stroke="#C5D0E6" stroke-linecap="round" stroke-linejoin="round"/>
</svg>
