<svg width="24" height="24" viewBox="0 0 24 24" fill="none" xmlns="http://www.w3.org/2000/svg">
<path d="M8.71143 15.5685C9.59708 14.7225 10.7747 14.2505 11.9995 14.2505C13.2242 14.2505 14.4019 14.7225 15.2875 15.5685" stroke="#C5D0E6" stroke-width="2" stroke-linecap="round" stroke-linejoin="round"/>
<path d="M5.5293 12.3865C7.25895 10.6966 9.58115 9.75049 11.9993 9.75049C14.4175 9.75049 16.7397 10.6966 18.4694 12.3865" stroke="#C5D0E6" stroke-width="2" stroke-linecap="round" stroke-linejoin="round"/>
<path d="M2.34961 9.20455C4.92224 6.67074 8.38825 5.25049 11.9991 5.25049C15.61 5.25049 19.0761 6.67074 21.6487 9.20455" stroke="#C5D0E6" stroke-width="2" stroke-linecap="round" stroke-linejoin="round"/>
<path d="M12 19.875C12.6213 19.875 13.125 19.3713 13.125 18.75C13.125 18.1287 12.6213 17.625 12 17.625C11.3787 17.625 10.875 18.1287 10.875 18.75C10.875 19.3713 11.3787 19.875 12 19.875Z" fill="#C5D0E6"/>
</svg>
